# xmcd
#
# Track frame offsets:
#	150
#	6978
#	20740
#	35814
#	50075
#	70639
#	84033
#	102038
#	116793
#	138181
#	151230
#
# Disc length: 2250 seconds
#
# Revision: 1
# Processed by: cddbd v1.5.2PL0 Copyright (c) Steve Scherf et al.
# Submitted via: audiograbber 1.83.01
#
DISCID=8808c80b
DTITLE=Darrell Webb Band - Breading Down The Barriers
DYEAR=1900
DGENRE=Bluegrass
TTITLE0=The Coal Miner's Son
TTITLE1=Goodbye To The Sun
TTITLE2=False Idols
TTITLE3=This Old Town
TTITLE4=Pistol And Pen
TTITLE5=She's Out Of Here
TTITLE6=Always Leave 'Em Smilin' (When You're Gone)
TTITLE7=NoreBelle
TTITLE8=Beckett's Back 40 Acres
TTITLE9=Jamming On The Highway
TTITLE10=Prisoner Of The Highway
EXTD=
EXTT0=
EXTT1=
EXTT2=
EXTT3=
EXTT4=
EXTT5=
EXTT6=
EXTT7=
EXTT8=
EXTT9=
EXTT10=
PLAYORDER=
